<svg width="512" height="115" viewBox="0 0 512 115" fill="none" xmlns="http://www.w3.org/2000/svg">
<path d="M474.5 61.5L495.002 19.9551L16.5 18L36.9558 61.0126L17 102.5L496.5 105L474.5 61.5Z" fill="white" stroke="#D9D9D9" stroke-width="0.3"/>
<path d="M18 21.5L11 8H501.5L495.5 21.5H18Z" fill="#123D65"/>
<path d="M495.343 102.5L17 102L11 114.5H501.5L495.343 102.5Z" fill="#123D65"/>
<path d="M80.5 100L53 28H56.5L80.5 92.5L104.5 28H108L80.5 100Z" fill="#123D65"/>
<path d="M64 28H60.5L81 82L101 28H98L80.5 74.5L64 28Z" fill="#123D65"/>
<path d="M70.5 28H67L81 64L94 28H91L81 56L70.5 28Z" fill="#123D65"/>
<path d="M116.328 59L109.986 44.3H113.661L119.205 57.32H117.042L122.67 44.3H126.051L119.688 59H116.328ZM124.854 59L131.406 44.3H134.766L141.339 59H137.769L132.393 46.022H133.737L128.34 59H124.854ZM128.13 55.85L129.033 53.267H136.593L137.517 55.85H128.13ZM147.695 59.252C146.519 59.252 145.392 59.098 144.314 58.79C143.236 58.468 142.368 58.055 141.71 57.551L142.865 54.989C143.495 55.437 144.237 55.808 145.091 56.102C145.959 56.382 146.834 56.522 147.716 56.522C148.388 56.522 148.927 56.459 149.333 56.333C149.753 56.193 150.061 56.004 150.257 55.766C150.453 55.528 150.551 55.255 150.551 54.947C150.551 54.555 150.397 54.247 150.089 54.023C149.781 53.785 149.375 53.596 148.871 53.456C148.367 53.302 147.807 53.162 147.191 53.036C146.589 52.896 145.98 52.728 145.364 52.532C144.762 52.336 144.209 52.084 143.705 51.776C143.201 51.468 142.788 51.062 142.466 50.558C142.158 50.054 142.004 49.41 142.004 48.626C142.004 47.786 142.228 47.023 142.676 46.337C143.138 45.637 143.824 45.084 144.734 44.678C145.658 44.258 146.813 44.048 148.199 44.048C149.123 44.048 150.033 44.16 150.929 44.384C151.825 44.594 152.616 44.916 153.302 45.35L152.252 47.933C151.566 47.541 150.88 47.254 150.194 47.072C149.508 46.876 148.836 46.778 148.178 46.778C147.52 46.778 146.981 46.855 146.561 47.009C146.141 47.163 145.84 47.366 145.658 47.618C145.476 47.856 145.385 48.136 145.385 48.458C145.385 48.836 145.539 49.144 145.847 49.382C146.155 49.606 146.561 49.788 147.065 49.928C147.569 50.068 148.122 50.208 148.724 50.348C149.34 50.488 149.949 50.649 150.551 50.831C151.167 51.013 151.727 51.258 152.231 51.566C152.735 51.874 153.141 52.28 153.449 52.784C153.771 53.288 153.932 53.925 153.932 54.695C153.932 55.521 153.701 56.277 153.239 56.963C152.777 57.649 152.084 58.202 151.16 58.622C150.25 59.042 149.095 59.252 147.695 59.252ZM161.086 59.252C159.91 59.252 158.783 59.098 157.705 58.79C156.627 58.468 155.759 58.055 155.101 57.551L156.256 54.989C156.886 55.437 157.628 55.808 158.482 56.102C159.35 56.382 160.225 56.522 161.107 56.522C161.779 56.522 162.318 56.459 162.724 56.333C163.144 56.193 163.452 56.004 163.648 55.766C163.844 55.528 163.942 55.255 163.942 54.947C163.942 54.555 163.788 54.247 163.48 54.023C163.172 53.785 162.766 53.596 162.262 53.456C161.758 53.302 161.198 53.162 160.582 53.036C159.98 52.896 159.371 52.728 158.755 52.532C158.153 52.336 157.6 52.084 157.096 51.776C156.592 51.468 156.179 51.062 155.857 50.558C155.549 50.054 155.395 49.41 155.395 48.626C155.395 47.786 155.619 47.023 156.067 46.337C156.529 45.637 157.215 45.084 158.125 44.678C159.049 44.258 160.204 44.048 161.59 44.048C162.514 44.048 163.424 44.16 164.32 44.384C165.216 44.594 166.007 44.916 166.693 45.35L165.643 47.933C164.957 47.541 164.271 47.254 163.585 47.072C162.899 46.876 162.227 46.778 161.569 46.778C160.911 46.778 160.372 46.855 159.952 47.009C159.532 47.163 159.231 47.366 159.049 47.618C158.867 47.856 158.776 48.136 158.776 48.458C158.776 48.836 158.93 49.144 159.238 49.382C159.546 49.606 159.952 49.788 160.456 49.928C160.96 50.068 161.513 50.208 162.115 50.348C162.731 50.488 163.34 50.649 163.942 50.831C164.558 51.013 165.118 51.258 165.622 51.566C166.126 51.874 166.532 52.28 166.84 52.784C167.162 53.288 167.323 53.925 167.323 54.695C167.323 55.521 167.092 56.277 166.63 56.963C166.168 57.649 165.475 58.202 164.551 58.622C163.641 59.042 162.486 59.252 161.086 59.252ZM175.595 59V44.3H181.958C183.274 44.3 184.408 44.517 185.36 44.951C186.312 45.371 187.047 45.98 187.565 46.778C188.083 47.576 188.342 48.528 188.342 49.634C188.342 50.726 188.083 51.671 187.565 52.469C187.047 53.253 186.312 53.855 185.36 54.275C184.408 54.695 183.274 54.905 181.958 54.905H177.485L178.997 53.414V59H175.595ZM184.94 59L181.265 53.666H184.898L188.615 59H184.94ZM178.997 53.792L177.485 52.196H181.769C182.819 52.196 183.603 51.972 184.121 51.524C184.639 51.062 184.898 50.432 184.898 49.634C184.898 48.822 184.639 48.192 184.121 47.744C183.603 47.296 182.819 47.072 181.769 47.072H177.485L178.997 45.455V53.792ZM194.166 50.222H201.243V52.868H194.166V50.222ZM194.418 56.27H202.419V59H191.037V44.3H202.146V47.03H194.418V56.27ZM203.194 59L209.746 44.3H213.106L219.679 59H216.109L210.733 46.022H212.077L206.68 59H203.194ZM206.47 55.85L207.373 53.267H214.933L215.857 55.85H206.47ZM221.204 59V44.3H224.606V56.228H231.977V59H221.204ZM242.955 50.222H250.032V52.868H242.955V50.222ZM243.207 56.27H251.208V59H239.826V44.3H250.935V47.03H243.207V56.27ZM258.744 59.252C257.568 59.252 256.441 59.098 255.363 58.79C254.285 58.468 253.417 58.055 252.759 57.551L253.914 54.989C254.544 55.437 255.286 55.808 256.14 56.102C257.008 56.382 257.883 56.522 258.765 56.522C259.437 56.522 259.976 56.459 260.382 56.333C260.802 56.193 261.11 56.004 261.306 55.766C261.502 55.528 261.6 55.255 261.6 54.947C261.6 54.555 261.446 54.247 261.138 54.023C260.83 53.785 260.424 53.596 259.92 53.456C259.416 53.302 258.856 53.162 258.24 53.036C257.638 52.896 257.029 52.728 256.413 52.532C255.811 52.336 255.258 52.084 254.754 51.776C254.25 51.468 253.837 51.062 253.515 50.558C253.207 50.054 253.053 49.41 253.053 48.626C253.053 47.786 253.277 47.023 253.725 46.337C254.187 45.637 254.873 45.084 255.783 44.678C256.707 44.258 257.862 44.048 259.248 44.048C260.172 44.048 261.082 44.16 261.978 44.384C262.874 44.594 263.665 44.916 264.351 45.35L263.301 47.933C262.615 47.541 261.929 47.254 261.243 47.072C260.557 46.876 259.885 46.778 259.227 46.778C258.569 46.778 258.03 46.855 257.61 47.009C257.19 47.163 256.889 47.366 256.707 47.618C256.525 47.856 256.434 48.136 256.434 48.458C256.434 48.836 256.588 49.144 256.896 49.382C257.204 49.606 257.61 49.788 258.114 49.928C258.618 50.068 259.171 50.208 259.773 50.348C260.389 50.488 260.998 50.649 261.6 50.831C262.216 51.013 262.776 51.258 263.28 51.566C263.784 51.874 264.19 52.28 264.498 52.784C264.82 53.288 264.981 53.925 264.981 54.695C264.981 55.521 264.75 56.277 264.288 56.963C263.826 57.649 263.133 58.202 262.209 58.622C261.299 59.042 260.144 59.252 258.744 59.252ZM270.146 59V47.072H265.442V44.3H278.252V47.072H273.548V59H270.146ZM277.412 59L283.964 44.3H287.324L293.897 59H290.327L284.951 46.022H286.295L280.898 59H277.412ZM280.688 55.85L281.591 53.267H289.151L290.075 55.85H280.688ZM297.729 59V47.072H293.025V44.3H305.835V47.072H301.131V59H297.729ZM310.794 50.222H317.871V52.868H310.794V50.222ZM311.046 56.27H319.047V59H307.665V44.3H318.774V47.03H311.046V56.27ZM332.531 59.252C331.355 59.252 330.228 59.098 329.15 58.79C328.072 58.468 327.204 58.055 326.546 57.551L327.701 54.989C328.331 55.437 329.073 55.808 329.927 56.102C330.795 56.382 331.67 56.522 332.552 56.522C333.224 56.522 333.763 56.459 334.169 56.333C334.589 56.193 334.897 56.004 335.093 55.766C335.289 55.528 335.387 55.255 335.387 54.947C335.387 54.555 335.233 54.247 334.925 54.023C334.617 53.785 334.211 53.596 333.707 53.456C333.203 53.302 332.643 53.162 332.027 53.036C331.425 52.896 330.816 52.728 330.2 52.532C329.598 52.336 329.045 52.084 328.541 51.776C328.037 51.468 327.624 51.062 327.302 50.558C326.994 50.054 326.84 49.41 326.84 48.626C326.84 47.786 327.064 47.023 327.512 46.337C327.974 45.637 328.66 45.084 329.57 44.678C330.494 44.258 331.649 44.048 333.035 44.048C333.959 44.048 334.869 44.16 335.765 44.384C336.661 44.594 337.452 44.916 338.138 45.35L337.088 47.933C336.402 47.541 335.716 47.254 335.03 47.072C334.344 46.876 333.672 46.778 333.014 46.778C332.356 46.778 331.817 46.855 331.397 47.009C330.977 47.163 330.676 47.366 330.494 47.618C330.312 47.856 330.221 48.136 330.221 48.458C330.221 48.836 330.375 49.144 330.683 49.382C330.991 49.606 331.397 49.788 331.901 49.928C332.405 50.068 332.958 50.208 333.56 50.348C334.176 50.488 334.785 50.649 335.387 50.831C336.003 51.013 336.563 51.258 337.067 51.566C337.571 51.874 337.977 52.28 338.285 52.784C338.607 53.288 338.768 53.925 338.768 54.695C338.768 55.521 338.537 56.277 338.075 56.963C337.613 57.649 336.92 58.202 335.996 58.622C335.086 59.042 333.931 59.252 332.531 59.252ZM348.233 59.252C347.071 59.252 345.993 59.063 344.999 58.685C344.019 58.307 343.165 57.775 342.437 57.089C341.723 56.403 341.163 55.598 340.757 54.674C340.365 53.75 340.169 52.742 340.169 51.65C340.169 50.558 340.365 49.55 340.757 48.626C341.163 47.702 341.73 46.897 342.458 46.211C343.186 45.525 344.04 44.993 345.02 44.615C346 44.237 347.064 44.048 348.212 44.048C349.374 44.048 350.438 44.237 351.404 44.615C352.384 44.993 353.231 45.525 353.945 46.211C354.673 46.897 355.24 47.702 355.646 48.626C356.052 49.536 356.255 50.544 356.255 51.65C356.255 52.742 356.052 53.757 355.646 54.695C355.24 55.619 354.673 56.424 353.945 57.11C353.231 57.782 352.384 58.307 351.404 58.685C350.438 59.063 349.381 59.252 348.233 59.252ZM348.212 56.354C348.87 56.354 349.472 56.242 350.018 56.018C350.578 55.794 351.068 55.472 351.488 55.052C351.908 54.632 352.23 54.135 352.454 53.561C352.692 52.987 352.811 52.35 352.811 51.65C352.811 50.95 352.692 50.313 352.454 49.739C352.23 49.165 351.908 48.668 351.488 48.248C351.082 47.828 350.599 47.506 350.039 47.282C349.479 47.058 348.87 46.946 348.212 46.946C347.554 46.946 346.945 47.058 346.385 47.282C345.839 47.506 345.356 47.828 344.936 48.248C344.516 48.668 344.187 49.165 343.949 49.739C343.725 50.313 343.613 50.95 343.613 51.65C343.613 52.336 343.725 52.973 343.949 53.561C344.187 54.135 344.509 54.632 344.915 55.052C345.335 55.472 345.825 55.794 346.385 56.018C346.945 56.242 347.554 56.354 348.212 56.354ZM358.812 59V44.3H362.214V56.228H369.585V59H358.812ZM377.853 59.252C375.767 59.252 374.136 58.671 372.96 57.509C371.784 56.347 371.196 54.688 371.196 52.532V44.3H374.598V52.406C374.598 53.806 374.885 54.814 375.459 55.43C376.033 56.046 376.838 56.354 377.874 56.354C378.91 56.354 379.715 56.046 380.289 55.43C380.863 54.814 381.15 53.806 381.15 52.406V44.3H384.51V52.532C384.51 54.688 383.922 56.347 382.746 57.509C381.57 58.671 379.939 59.252 377.853 59.252ZM390.67 59V47.072H385.966V44.3H398.776V47.072H394.072V59H390.67ZM400.607 59V44.3H404.009V59H400.607ZM414.637 59.252C413.475 59.252 412.397 59.063 411.403 58.685C410.423 58.307 409.569 57.775 408.841 57.089C408.127 56.403 407.567 55.598 407.161 54.674C406.769 53.75 406.573 52.742 406.573 51.65C406.573 50.558 406.769 49.55 407.161 48.626C407.567 47.702 408.134 46.897 408.862 46.211C409.59 45.525 410.444 44.993 411.424 44.615C412.404 44.237 413.468 44.048 414.616 44.048C415.778 44.048 416.842 44.237 417.808 44.615C418.788 44.993 419.635 45.525 420.349 46.211C421.077 46.897 421.644 47.702 422.05 48.626C422.456 49.536 422.659 50.544 422.659 51.65C422.659 52.742 422.456 53.757 422.05 54.695C421.644 55.619 421.077 56.424 420.349 57.11C419.635 57.782 418.788 58.307 417.808 58.685C416.842 59.063 415.785 59.252 414.637 59.252ZM414.616 56.354C415.274 56.354 415.876 56.242 416.422 56.018C416.982 55.794 417.472 55.472 417.892 55.052C418.312 54.632 418.634 54.135 418.858 53.561C419.096 52.987 419.215 52.35 419.215 51.65C419.215 50.95 419.096 50.313 418.858 49.739C418.634 49.165 418.312 48.668 417.892 48.248C417.486 47.828 417.003 47.506 416.443 47.282C415.883 47.058 415.274 46.946 414.616 46.946C413.958 46.946 413.349 47.058 412.789 47.282C412.243 47.506 411.76 47.828 411.34 48.248C410.92 48.668 410.591 49.165 410.353 49.739C410.129 50.313 410.017 50.95 410.017 51.65C410.017 52.336 410.129 52.973 410.353 53.561C410.591 54.135 410.913 54.632 411.319 55.052C411.739 55.472 412.229 55.794 412.789 56.018C413.349 56.242 413.958 56.354 414.616 56.354ZM425.216 59V44.3H428.03L436.703 54.884H435.338V44.3H438.698V59H435.905L427.211 48.416H428.576V59H425.216ZM447.006 59.252C445.83 59.252 444.703 59.098 443.625 58.79C442.547 58.468 441.679 58.055 441.021 57.551L442.176 54.989C442.806 55.437 443.548 55.808 444.402 56.102C445.27 56.382 446.145 56.522 447.027 56.522C447.699 56.522 448.238 56.459 448.644 56.333C449.064 56.193 449.372 56.004 449.568 55.766C449.764 55.528 449.862 55.255 449.862 54.947C449.862 54.555 449.708 54.247 449.4 54.023C449.092 53.785 448.686 53.596 448.182 53.456C447.678 53.302 447.118 53.162 446.502 53.036C445.9 52.896 445.291 52.728 444.675 52.532C444.073 52.336 443.52 52.084 443.016 51.776C442.512 51.468 442.099 51.062 441.777 50.558C441.469 50.054 441.315 49.41 441.315 48.626C441.315 47.786 441.539 47.023 441.987 46.337C442.449 45.637 443.135 45.084 444.045 44.678C444.969 44.258 446.124 44.048 447.51 44.048C448.434 44.048 449.344 44.16 450.24 44.384C451.136 44.594 451.927 44.916 452.613 45.35L451.563 47.933C450.877 47.541 450.191 47.254 449.505 47.072C448.819 46.876 448.147 46.778 447.489 46.778C446.831 46.778 446.292 46.855 445.872 47.009C445.452 47.163 445.151 47.366 444.969 47.618C444.787 47.856 444.696 48.136 444.696 48.458C444.696 48.836 444.85 49.144 445.158 49.382C445.466 49.606 445.872 49.788 446.376 49.928C446.88 50.068 447.433 50.208 448.035 50.348C448.651 50.488 449.26 50.649 449.862 50.831C450.478 51.013 451.038 51.258 451.542 51.566C452.046 51.874 452.452 52.28 452.76 52.784C453.082 53.288 453.243 53.925 453.243 54.695C453.243 55.521 453.012 56.277 452.55 56.963C452.088 57.649 451.395 58.202 450.471 58.622C449.561 59.042 448.406 59.252 447.006 59.252Z" fill="#123D65"/>
<rect x="113" y="68" width="346" height="2" fill="#D9D9D9"/>
<path d="M190.755 77.096L189.963 79.976L189.699 78.896C190.043 78.896 190.323 78.996 190.539 79.196C190.755 79.396 190.863 79.672 190.863 80.024C190.863 80.368 190.751 80.648 190.527 80.864C190.311 81.072 190.039 81.176 189.711 81.176C189.375 81.176 189.095 81.072 188.871 80.864C188.655 80.648 188.547 80.368 188.547 80.024C188.547 79.92 188.555 79.82 188.571 79.724C188.587 79.62 188.619 79.5 188.667 79.364C188.715 79.228 188.783 79.048 188.871 78.824L189.567 77.096H190.755ZM193.587 77.096L192.795 79.976L192.531 78.896C192.875 78.896 193.155 78.996 193.371 79.196C193.587 79.396 193.695 79.672 193.695 80.024C193.695 80.368 193.583 80.648 193.359 80.864C193.143 81.072 192.871 81.176 192.543 81.176C192.207 81.176 191.927 81.072 191.703 80.864C191.487 80.648 191.379 80.368 191.379 80.024C191.379 79.92 191.387 79.82 191.403 79.724C191.419 79.62 191.451 79.5 191.499 79.364C191.547 79.228 191.615 79.048 191.703 78.824L192.399 77.096H193.587ZM194.582 86V84.74L197.822 81.68C198.078 81.448 198.266 81.24 198.386 81.056C198.506 80.872 198.586 80.704 198.626 80.552C198.674 80.4 198.698 80.26 198.698 80.132C198.698 79.796 198.582 79.54 198.35 79.364C198.126 79.18 197.794 79.088 197.354 79.088C197.002 79.088 196.674 79.156 196.37 79.292C196.074 79.428 195.822 79.64 195.614 79.928L194.198 79.016C194.518 78.536 194.966 78.156 195.542 77.876C196.118 77.596 196.782 77.456 197.534 77.456C198.158 77.456 198.702 77.56 199.166 77.768C199.638 77.968 200.002 78.252 200.258 78.62C200.522 78.988 200.654 79.428 200.654 79.94C200.654 80.212 200.618 80.484 200.546 80.756C200.482 81.02 200.346 81.3 200.138 81.596C199.938 81.892 199.642 82.224 199.25 82.592L196.562 85.124L196.19 84.416H200.93V86H194.582ZM201.507 84.236V82.928L205.467 77.6H207.507L203.631 82.928L202.683 82.652H209.295V84.236H201.507ZM206.031 86V84.236L206.091 82.652V81.08H207.927V86H206.031ZM209.293 87.2L213.253 75.896H214.921L210.961 87.2H209.293ZM216.271 86L219.655 78.344L220.159 79.184H215.635L216.499 78.272V80.552H214.771V77.6H221.503V78.86L218.383 86H216.271ZM226.295 86V77.6H230.399C231.455 77.6 232.247 77.8 232.775 78.2C233.311 78.6 233.579 79.128 233.579 79.784C233.579 80.224 233.471 80.608 233.255 80.936C233.039 81.256 232.743 81.504 232.367 81.68C231.991 81.856 231.559 81.944 231.071 81.944L231.299 81.452C231.827 81.452 232.295 81.54 232.703 81.716C233.111 81.884 233.427 82.136 233.651 82.472C233.883 82.808 233.999 83.22 233.999 83.708C233.999 84.428 233.715 84.992 233.147 85.4C232.579 85.8 231.743 86 230.639 86H226.295ZM228.227 84.536H230.495C230.999 84.536 231.379 84.456 231.635 84.296C231.899 84.128 232.031 83.864 232.031 83.504C232.031 83.152 231.899 82.892 231.635 82.724C231.379 82.548 230.999 82.46 230.495 82.46H228.083V81.044H230.159C230.631 81.044 230.991 80.964 231.239 80.804C231.495 80.636 231.623 80.384 231.623 80.048C231.623 79.72 231.495 79.476 231.239 79.316C230.991 79.148 230.631 79.064 230.159 79.064H228.227V84.536ZM239.551 86.144C238.887 86.144 238.271 86.036 237.703 85.82C237.143 85.604 236.655 85.3 236.239 84.908C235.831 84.516 235.511 84.056 235.279 83.528C235.055 83 234.943 82.424 234.943 81.8C234.943 81.176 235.055 80.6 235.279 80.072C235.511 79.544 235.835 79.084 236.251 78.692C236.667 78.3 237.155 77.996 237.715 77.78C238.275 77.564 238.883 77.456 239.539 77.456C240.203 77.456 240.811 77.564 241.363 77.78C241.923 77.996 242.407 78.3 242.815 78.692C243.231 79.084 243.555 79.544 243.787 80.072C244.019 80.592 244.135 81.168 244.135 81.8C244.135 82.424 244.019 83.004 243.787 83.54C243.555 84.068 243.231 84.528 242.815 84.92C242.407 85.304 241.923 85.604 241.363 85.82C240.811 86.036 240.207 86.144 239.551 86.144ZM239.539 84.488C239.915 84.488 240.259 84.424 240.571 84.296C240.891 84.168 241.171 83.984 241.411 83.744C241.651 83.504 241.835 83.22 241.963 82.892C242.099 82.564 242.167 82.2 242.167 81.8C242.167 81.4 242.099 81.036 241.963 80.708C241.835 80.38 241.651 80.096 241.411 79.856C241.179 79.616 240.903 79.432 240.583 79.304C240.263 79.176 239.915 79.112 239.539 79.112C239.163 79.112 238.815 79.176 238.495 79.304C238.183 79.432 237.907 79.616 237.667 79.856C237.427 80.096 237.239 80.38 237.103 80.708C236.975 81.036 236.911 81.4 236.911 81.8C236.911 82.192 236.975 82.556 237.103 82.892C237.239 83.22 237.423 83.504 237.655 83.744C237.895 83.984 238.175 84.168 238.495 84.296C238.815 84.424 239.163 84.488 239.539 84.488ZM249.676 86.144C249.012 86.144 248.396 86.036 247.828 85.82C247.268 85.604 246.78 85.3 246.364 84.908C245.956 84.516 245.636 84.056 245.404 83.528C245.18 83 245.068 82.424 245.068 81.8C245.068 81.176 245.18 80.6 245.404 80.072C245.636 79.544 245.96 79.084 246.376 78.692C246.792 78.3 247.28 77.996 247.84 77.78C248.4 77.564 249.008 77.456 249.664 77.456C250.328 77.456 250.936 77.564 251.488 77.78C252.048 77.996 252.532 78.3 252.94 78.692C253.356 79.084 253.68 79.544 253.912 80.072C254.144 80.592 254.26 81.168 254.26 81.8C254.26 82.424 254.144 83.004 253.912 83.54C253.68 84.068 253.356 84.528 252.94 84.92C252.532 85.304 252.048 85.604 251.488 85.82C250.936 86.036 250.332 86.144 249.676 86.144ZM249.664 84.488C250.04 84.488 250.384 84.424 250.696 84.296C251.016 84.168 251.296 83.984 251.536 83.744C251.776 83.504 251.96 83.22 252.088 82.892C252.224 82.564 252.292 82.2 252.292 81.8C252.292 81.4 252.224 81.036 252.088 80.708C251.96 80.38 251.776 80.096 251.536 79.856C251.304 79.616 251.028 79.432 250.708 79.304C250.388 79.176 250.04 79.112 249.664 79.112C249.288 79.112 248.94 79.176 248.62 79.304C248.308 79.432 248.032 79.616 247.792 79.856C247.552 80.096 247.364 80.38 247.228 80.708C247.1 81.036 247.036 81.4 247.036 81.8C247.036 82.192 247.1 82.556 247.228 82.892C247.364 83.22 247.548 83.504 247.78 83.744C248.02 83.984 248.3 84.168 248.62 84.296C248.94 84.424 249.288 84.488 249.664 84.488ZM257.343 86V79.184H254.655V77.6H261.975V79.184H259.287V86H257.343ZM265.723 86.144C265.051 86.144 264.407 86.056 263.791 85.88C263.175 85.696 262.679 85.46 262.303 85.172L262.963 83.708C263.323 83.964 263.747 84.176 264.235 84.344C264.731 84.504 265.231 84.584 265.735 84.584C266.119 84.584 266.427 84.548 266.659 84.476C266.899 84.396 267.075 84.288 267.187 84.152C267.299 84.016 267.355 83.86 267.355 83.684C267.355 83.46 267.267 83.284 267.091 83.156C266.915 83.02 266.683 82.912 266.395 82.832C266.107 82.744 265.787 82.664 265.435 82.592C265.091 82.512 264.743 82.416 264.391 82.304C264.047 82.192 263.731 82.048 263.443 81.872C263.155 81.696 262.919 81.464 262.735 81.176C262.559 80.888 262.471 80.52 262.471 80.072C262.471 79.592 262.599 79.156 262.855 78.764C263.119 78.364 263.511 78.048 264.031 77.816C264.559 77.576 265.219 77.456 266.011 77.456C266.539 77.456 267.059 77.52 267.571 77.648C268.083 77.768 268.535 77.952 268.927 78.2L268.327 79.676C267.935 79.452 267.543 79.288 267.151 79.184C266.759 79.072 266.375 79.016 265.999 79.016C265.623 79.016 265.315 79.06 265.075 79.148C264.835 79.236 264.663 79.352 264.559 79.496C264.455 79.632 264.403 79.792 264.403 79.976C264.403 80.192 264.491 80.368 264.667 80.504C264.843 80.632 265.075 80.736 265.363 80.816C265.651 80.896 265.967 80.976 266.311 81.056C266.663 81.136 267.011 81.228 267.355 81.332C267.707 81.436 268.027 81.576 268.315 81.752C268.603 81.928 268.835 82.16 269.011 82.448C269.195 82.736 269.287 83.1 269.287 83.54C269.287 84.012 269.155 84.444 268.891 84.836C268.627 85.228 268.231 85.544 267.703 85.784C267.183 86.024 266.523 86.144 265.723 86.144ZM278.094 86.144C277.43 86.144 276.814 86.036 276.246 85.82C275.686 85.604 275.198 85.3 274.782 84.908C274.374 84.516 274.054 84.056 273.822 83.528C273.598 83 273.486 82.424 273.486 81.8C273.486 81.176 273.598 80.6 273.822 80.072C274.054 79.544 274.378 79.084 274.794 78.692C275.21 78.3 275.698 77.996 276.258 77.78C276.818 77.564 277.426 77.456 278.082 77.456C278.746 77.456 279.354 77.564 279.906 77.78C280.466 77.996 280.95 78.3 281.358 78.692C281.774 79.084 282.098 79.544 282.33 80.072C282.562 80.592 282.678 81.168 282.678 81.8C282.678 82.424 282.562 83.004 282.33 83.54C282.098 84.068 281.774 84.528 281.358 84.92C280.95 85.304 280.466 85.604 279.906 85.82C279.354 86.036 278.75 86.144 278.094 86.144ZM278.082 84.488C278.458 84.488 278.802 84.424 279.114 84.296C279.434 84.168 279.714 83.984 279.954 83.744C280.194 83.504 280.378 83.22 280.506 82.892C280.642 82.564 280.71 82.2 280.71 81.8C280.71 81.4 280.642 81.036 280.506 80.708C280.378 80.38 280.194 80.096 279.954 79.856C279.722 79.616 279.446 79.432 279.126 79.304C278.806 79.176 278.458 79.112 278.082 79.112C277.706 79.112 277.358 79.176 277.038 79.304C276.726 79.432 276.45 79.616 276.21 79.856C275.97 80.096 275.782 80.38 275.646 80.708C275.518 81.036 275.454 81.4 275.454 81.8C275.454 82.192 275.518 82.556 275.646 82.892C275.782 83.22 275.966 83.504 276.198 83.744C276.438 83.984 276.718 84.168 277.038 84.296C277.358 84.424 277.706 84.488 278.082 84.488ZM284.139 86V77.6H285.747L290.703 83.648H289.923V77.6H291.843V86H290.247L285.279 79.952H286.059V86H284.139ZM298.968 86V79.184H296.28V77.6H303.6V79.184H300.912V86H298.968ZM310.406 77.6H312.35V86H310.406V77.6ZM306.59 86H304.646V77.6H306.59V86ZM310.55 82.556H306.446V80.912H310.55V82.556ZM316.126 80.984H320.17V82.496H316.126V80.984ZM316.27 84.44H320.842V86H314.338V77.6H320.686V79.16H316.27V84.44ZM329.843 86.144C329.179 86.144 328.567 86.04 328.007 85.832C327.455 85.616 326.971 85.312 326.555 84.92C326.147 84.528 325.827 84.068 325.595 83.54C325.371 83.012 325.259 82.432 325.259 81.8C325.259 81.168 325.371 80.588 325.595 80.06C325.827 79.532 326.151 79.072 326.567 78.68C326.983 78.288 327.471 77.988 328.031 77.78C328.591 77.564 329.207 77.456 329.879 77.456C330.623 77.456 331.291 77.58 331.883 77.828C332.483 78.076 332.987 78.436 333.395 78.908L332.147 80.06C331.843 79.74 331.511 79.504 331.151 79.352C330.791 79.192 330.399 79.112 329.975 79.112C329.567 79.112 329.195 79.176 328.859 79.304C328.523 79.432 328.231 79.616 327.983 79.856C327.743 80.096 327.555 80.38 327.419 80.708C327.291 81.036 327.227 81.4 327.227 81.8C327.227 82.192 327.291 82.552 327.419 82.88C327.555 83.208 327.743 83.496 327.983 83.744C328.231 83.984 328.519 84.168 328.847 84.296C329.183 84.424 329.551 84.488 329.951 84.488C330.335 84.488 330.707 84.428 331.067 84.308C331.435 84.18 331.791 83.968 332.135 83.672L333.239 85.076C332.783 85.42 332.251 85.684 331.643 85.868C331.043 86.052 330.443 86.144 329.843 86.144ZM331.463 84.824V81.668H333.239V85.076L331.463 84.824ZM335.045 86V77.6H338.681C339.433 77.6 340.081 77.724 340.625 77.972C341.169 78.212 341.589 78.56 341.885 79.016C342.181 79.472 342.329 80.016 342.329 80.648C342.329 81.272 342.181 81.812 341.885 82.268C341.589 82.716 341.169 83.06 340.625 83.3C340.081 83.54 339.433 83.66 338.681 83.66H336.125L336.989 82.808V86H335.045ZM340.385 86L338.285 82.952H340.361L342.485 86H340.385ZM336.989 83.024L336.125 82.112H338.573C339.173 82.112 339.621 81.984 339.917 81.728C340.213 81.464 340.361 81.104 340.361 80.648C340.361 80.184 340.213 79.824 339.917 79.568C339.621 79.312 339.173 79.184 338.573 79.184H336.125L336.989 78.26V83.024ZM347.949 86.144C347.285 86.144 346.669 86.036 346.101 85.82C345.541 85.604 345.053 85.3 344.637 84.908C344.229 84.516 343.909 84.056 343.677 83.528C343.453 83 343.341 82.424 343.341 81.8C343.341 81.176 343.453 80.6 343.677 80.072C343.909 79.544 344.233 79.084 344.649 78.692C345.065 78.3 345.553 77.996 346.113 77.78C346.673 77.564 347.281 77.456 347.937 77.456C348.601 77.456 349.209 77.564 349.761 77.78C350.321 77.996 350.805 78.3 351.213 78.692C351.629 79.084 351.953 79.544 352.185 80.072C352.417 80.592 352.533 81.168 352.533 81.8C352.533 82.424 352.417 83.004 352.185 83.54C351.953 84.068 351.629 84.528 351.213 84.92C350.805 85.304 350.321 85.604 349.761 85.82C349.209 86.036 348.605 86.144 347.949 86.144ZM347.937 84.488C348.313 84.488 348.657 84.424 348.969 84.296C349.289 84.168 349.569 83.984 349.809 83.744C350.049 83.504 350.233 83.22 350.361 82.892C350.497 82.564 350.565 82.2 350.565 81.8C350.565 81.4 350.497 81.036 350.361 80.708C350.233 80.38 350.049 80.096 349.809 79.856C349.577 79.616 349.301 79.432 348.981 79.304C348.661 79.176 348.313 79.112 347.937 79.112C347.561 79.112 347.213 79.176 346.893 79.304C346.581 79.432 346.305 79.616 346.065 79.856C345.825 80.096 345.637 80.38 345.501 80.708C345.373 81.036 345.309 81.4 345.309 81.8C345.309 82.192 345.373 82.556 345.501 82.892C345.637 83.22 345.821 83.504 346.053 83.744C346.293 83.984 346.573 84.168 346.893 84.296C347.213 84.424 347.561 84.488 347.937 84.488ZM357.726 86.144C356.534 86.144 355.602 85.812 354.93 85.148C354.258 84.484 353.922 83.536 353.922 82.304V77.6H355.866V82.232C355.866 83.032 356.03 83.608 356.358 83.96C356.686 84.312 357.146 84.488 357.738 84.488C358.33 84.488 358.79 84.312 359.118 83.96C359.446 83.608 359.61 83.032 359.61 82.232V77.6H361.53V82.304C361.53 83.536 361.194 84.484 360.522 85.148C359.85 85.812 358.918 86.144 357.726 86.144ZM363.451 86V77.6H365.059L370.015 83.648H369.235V77.6H371.155V86H369.559L364.591 79.952H365.371V86H363.451ZM373.142 86V77.6H376.958C377.87 77.6 378.674 77.776 379.37 78.128C380.066 78.472 380.61 78.956 381.002 79.58C381.394 80.204 381.59 80.944 381.59 81.8C381.59 82.648 381.394 83.388 381.002 84.02C380.61 84.644 380.066 85.132 379.37 85.484C378.674 85.828 377.87 86 376.958 86H373.142ZM375.086 84.404H376.862C377.422 84.404 377.906 84.3 378.314 84.092C378.73 83.876 379.05 83.572 379.274 83.18C379.506 82.788 379.622 82.328 379.622 81.8C379.622 81.264 379.506 80.804 379.274 80.42C379.05 80.028 378.73 79.728 378.314 79.52C377.906 79.304 377.422 79.196 376.862 79.196H375.086V84.404ZM382.425 81.08L383.217 78.2L383.481 79.292C383.137 79.292 382.853 79.192 382.629 78.992C382.413 78.784 382.305 78.504 382.305 78.152C382.305 77.808 382.417 77.532 382.641 77.324C382.865 77.108 383.141 77 383.469 77C383.805 77 384.081 77.108 384.297 77.324C384.513 77.532 384.621 77.808 384.621 78.152C384.621 78.256 384.613 78.36 384.597 78.464C384.589 78.56 384.561 78.676 384.513 78.812C384.473 78.948 384.405 79.128 384.309 79.352L383.613 81.08H382.425ZM385.257 81.08L386.049 78.2L386.313 79.292C385.969 79.292 385.685 79.192 385.461 78.992C385.245 78.784 385.137 78.504 385.137 78.152C385.137 77.808 385.249 77.532 385.473 77.324C385.697 77.108 385.973 77 386.301 77C386.637 77 386.913 77.108 387.129 77.324C387.345 77.532 387.453 77.808 387.453 78.152C387.453 78.256 387.445 78.36 387.429 78.464C387.421 78.56 387.393 78.676 387.345 78.812C387.305 78.948 387.237 79.128 387.141 79.352L386.445 81.08H385.257Z" fill="#123D65"/>
</svg>
