<?xml version="1.0" encoding="UTF-8"?>
<svg id="Layer_2" data-name="Layer 2" xmlns="http://www.w3.org/2000/svg" viewBox="0 0 623.12 479.4">
  <defs>
    <style>
      .cls-1 {
        fill: #fff;
      }
    </style>
  </defs>
  <g id="Layer_1-2" data-name="Layer 1">
    <g>
      <path class="cls-1" d="m59.23,477.19c-13.23,6.26-21.31-1.81-11.91-11.4,57.65-56.8,88.66-118.68,93.43-186.07C63.32,279.73,0,222.9,0,145.76,0,60.24,54.52,0,143.15,0s140.75,80.23,140.75,162.99c0,77.95-25.06,144.15-75.15,198.22-50.11,54.46-99.81,92.85-149.53,115.98h0Z"/>
      <path class="cls-1" d="m398.47,477.19c-13.26,6.26-21.31-1.81-11.94-11.4,57.65-56.8,88.69-118.68,93.46-186.07-77.46,0-140.78-56.83-140.78-133.97C339.21,60.24,393.76,0,482.37,0s140.75,80.23,140.75,162.99c0,77.95-25.03,144.15-75.15,198.22-50.09,54.46-99.81,92.85-149.5,115.98h0Z"/>
    </g>
  </g>
</svg>