<?xml version="1.0" encoding="UTF-8"?>
<svg id="Layer_2" data-name="Layer 2" xmlns="http://www.w3.org/2000/svg" viewBox="0 0 316.75 308.94">
  <defs>
    <style>
      .cls-1 {
        fill: #f0f0f0;
      }

      .cls-2 {
        fill: #2f2e41;
      }

      .cls-3 {
        fill: #fff;
      }

      .cls-4 {
        fill: #ffb8b8;
      }

      .cls-5 {
        fill: #f7ab0a;
      }
    </style>
  </defs>
  <g id="Layer_1-2" data-name="Layer 1">
    <path class="cls-1" d="m313.55,308.94H3.2c-1.76,0-3.19-1.43-3.2-3.2V3.2C0,1.43,1.43,0,3.2,0h310.36c1.76,0,3.19,1.43,3.2,3.2v302.54c0,1.76-1.43,3.19-3.2,3.2Z"/>
    <path class="cls-3" d="m279.82,27.7H36.93c-1.76,0-3.19,1.43-3.2,3.2v188.2c0,1.76,1.43,3.19,3.2,3.2h242.89c1.76,0,3.19-1.43,3.2-3.2V30.89c0-1.76-1.43-3.19-3.2-3.2Z"/>
    <path class="cls-3" d="m265.97,259.22H50.78c-.98,0-1.77-.8-1.78-1.78v-9.94c0-.98.8-1.77,1.78-1.78h215.19c.98,0,1.77.8,1.78,1.78v9.94c0,.98-.8,1.77-1.78,1.78Z"/>
    <path class="cls-3" d="m191.4,283.37H50.78c-.98,0-1.77-.8-1.78-1.78v-9.94c0-.98.8-1.77,1.78-1.78h140.62c.98,0,1.77.8,1.78,1.78v9.94c0,.98-.8,1.77-1.78,1.78Z"/>
    <circle class="cls-4" cx="152.37" cy="124.35" r="30.88"/>
    <polygon class="cls-5" points="197.56 222.29 129.09 222.29 131.32 171.95 131.86 171.39 139.54 163.27 163.99 163.27 173.05 172.05 173.79 172.76 193.08 191.26 197.56 222.29"/>
    <path class="cls-2" d="m140.86,222.29h-51.8c-.13-11.36-.2-18.17-.2-18.17l3-1.83s0,0,.01,0h0l33.01-20.04,6.93-11.26.04.4,2.04,23.73s3.37,10.88,6.97,27.17Z"/>
    <path class="cls-2" d="m227.92,222.29h-54.87c.83-33.14-3.64-51.3-1.34-51.3l1.34,1.06,16.17,12.77,21.31,7.82h.01l14.69,5.39,2.58.94v1.21c0,2.91.02,10.87.1,22.1Z"/>
    <path class="cls-2" d="m123.16,134.01s2.62-4.61,2.01-20,22.83-6.69,42.42-8.16,15.44,25.7,15.44,25.7c0,0,1.41-1.61,4.44-14.73s-3.84-26.18-3.84-26.18c-2.02-13.78-12.93-9.36-12.93-9.36,5.25,2.04,4.24,6.41,4.24,6.41-4.44-7.79-15.35-3.38-15.35-3.38-14.54-9.13-29.28,2.89-29.28,2.89-17.57,3.99-7.26,17.96-7.26,17.96-17.67,8.93.11,28.84.11,28.84Z"/>
    <path class="cls-2" d="m95.98,222.29h-21.28c.17-2.62.17-5.25.01-7.88-1.27-5.06,16.61-11.91,17.15-12.12,0,0,0,0,.01,0h0l3.41,1.83.69,18.17Z"/>
    <path class="cls-2" d="m231.77,222.29h-22.36l-2.79-27.56,3.13-2.29s.28.06.79.19h.01c2.51.62,10.26,2.66,14.69,5.39.99.55,1.86,1.29,2.58,2.16.44.53.66,1.2.61,1.89-.11,1.03,1.19,8.61,3.33,20.21Z"/>
  </g>
</svg>